<svg width="300" height="300" viewBox="0 0 300 300" fill="none" xmlns="http://www.w3.org/2000/svg">
<g clip-path="url(#clip0_110_267)">
<path d="M180.405 9.51104C182.058 -3.52516 200.942 -3.52517 202.595 9.51103C203.927 20.0191 217.763 22.9599 223.254 13.9022C230.066 2.66526 247.318 10.3463 243.525 22.9277C240.468 33.0692 251.911 41.383 260.612 35.3418C271.406 27.8471 284.042 41.881 275.46 51.8322C268.542 59.8535 275.614 72.1029 286.02 70.1228C298.929 67.6662 304.764 85.6264 292.877 91.2267C283.295 95.741 284.773 109.808 295.085 112.231C307.877 115.238 305.903 134.019 292.765 134.3C282.175 134.526 277.805 147.978 286.239 154.386C296.702 162.336 287.26 178.69 275.144 173.603C265.377 169.503 255.913 180.014 261.012 189.299C267.337 200.817 252.059 211.917 243.059 202.342C235.805 194.623 222.884 200.376 223.765 210.932C224.859 224.027 206.387 227.953 202.06 215.545C198.572 205.544 184.428 205.544 180.94 215.545C176.613 227.953 158.141 224.027 159.235 210.932C160.116 200.376 147.195 194.623 139.941 202.342C130.941 211.917 115.663 200.817 121.989 189.299C127.087 180.014 117.623 169.503 107.856 173.603C95.7403 178.69 86.2981 162.336 96.7614 154.386C105.196 147.978 100.825 134.526 90.2349 134.3C77.0973 134.019 75.1234 115.238 87.9154 112.231C98.2267 109.808 99.7052 95.741 90.1231 91.2267C78.2356 85.6264 84.0712 67.6662 96.9801 70.1228C107.386 72.1029 114.458 59.8535 107.54 51.8322C98.9584 41.881 111.595 27.8471 122.388 35.3418C131.089 41.383 142.532 33.0692 139.475 22.9277C135.682 10.3463 152.934 2.66526 159.746 13.9022C165.237 22.9599 179.073 20.0191 180.405 9.51104Z" fill="url(#paint0_radial_110_267)"/>
<path d="M101.405 68.511C103.058 55.4748 121.942 55.4748 123.595 68.511C124.927 79.0191 138.763 81.9599 144.254 72.9022C151.066 61.6653 168.318 69.3463 164.525 81.9277C161.468 92.0692 172.911 100.383 181.612 94.3418C192.406 86.8471 205.042 100.881 196.46 110.832C189.542 118.854 196.614 131.103 207.02 129.123C219.929 126.666 225.764 144.626 213.877 150.227C204.295 154.741 205.773 168.808 216.085 171.231C228.877 174.238 226.903 193.019 213.765 193.3C203.175 193.526 198.805 206.978 207.239 213.386C217.702 221.336 208.26 237.69 196.144 232.603C186.377 228.503 176.913 239.014 182.012 248.299C188.337 259.817 173.059 270.917 164.059 261.342C156.805 253.623 143.884 259.376 144.765 269.932C145.859 283.027 127.387 286.953 123.06 274.545C119.572 264.544 105.428 264.544 101.94 274.545C97.6129 286.953 79.1411 283.027 80.2348 269.932C81.1164 259.376 68.1949 253.623 60.9406 261.342C51.941 270.917 36.6632 259.817 42.9885 248.299C48.0872 239.014 38.6228 228.503 28.8564 232.603C16.7403 237.69 7.29808 221.336 17.7614 213.386C26.1955 206.978 21.8247 193.526 11.2349 193.3C-1.90266 193.019 -3.87662 174.238 8.91539 171.231C19.2267 168.808 20.7051 154.741 11.1231 150.227C-0.764371 144.626 5.07123 126.666 17.9801 129.123C28.3856 131.103 35.4578 118.854 28.5402 110.832C19.9584 100.881 32.5945 86.8471 43.3882 94.3418C52.0887 100.383 63.5318 92.0691 60.4748 81.9277C56.6824 69.3462 73.9342 61.6653 80.7464 72.9022C86.2375 81.9599 100.073 79.0191 101.405 68.511Z" fill="url(#paint1_radial_110_267)"/>
</g>
<defs>
<radialGradient id="paint0_radial_110_267" cx="0" cy="0" r="1" gradientUnits="userSpaceOnUse" gradientTransform="translate(292 18) rotate(122.61) scale(205.969 205.969)">
<stop stop-color="#6AF7FD"/>
<stop offset="1" stop-color="#6AF7FD" stop-opacity="0"/>
</radialGradient>
<radialGradient id="paint1_radial_110_267" cx="0" cy="0" r="1" gradientUnits="userSpaceOnUse" gradientTransform="translate(213 77) rotate(122.61) scale(205.969 205.969)">
<stop stop-color="#56C3F0"/>
<stop offset="1" stop-color="#56C3F0" stop-opacity="0"/>
</radialGradient>
<clipPath id="clip0_110_267">
<rect width="300" height="300" fill="white"/>
</clipPath>
</defs>
</svg>
