<svg width="86" height="102" viewBox="0 0 86 102" fill="none" xmlns="http://www.w3.org/2000/svg">
<path d="M42.9999 102V92.2857H76.4443V87.4286H57.3333V48.5714H76.4443V43.7143C76.4443 34.3238 73.1795 26.3095 66.6499 19.6714C60.1203 13.0333 52.237 9.71428 42.9999 9.71428C33.7629 9.71428 25.8796 13.0333 19.35 19.6714C12.8204 26.3095 9.55554 34.3238 9.55554 43.7143V48.5714H28.6666V87.4286H9.55554C6.92777 87.4286 4.67903 86.4782 2.80933 84.5774C0.939629 82.6767 0.00318518 80.3889 0 77.7143V43.7143C0 37.7238 1.13552 32.0766 3.40655 26.7726C5.67759 21.4686 8.76243 16.8349 12.6611 12.8714C16.5598 8.908 21.1193 5.7719 26.3399 3.46314C31.5604 1.15438 37.1137 0 42.9999 0C48.8862 0 54.4411 1.15438 59.6648 3.46314C64.8885 5.7719 69.4465 8.908 73.3388 12.8714C77.2311 16.8349 80.3175 21.4702 82.5981 26.7774C84.8787 32.0847 86.0126 37.7303 85.9999 43.7143V92.2857C85.9999 94.9571 85.065 97.2449 83.1953 99.1488C81.3256 101.053 79.0753 102.003 76.4443 102H42.9999Z" fill="white"/>
</svg>
