<svg width="513" height="280" viewBox="0 0 513 280" fill="none" xmlns="http://www.w3.org/2000/svg">
<g opacity="0.9" filter="url(#filter0_f_101_171)">
<path d="M134.114 179.193C55.4159 47.68 -52.3027 410.308 -33.9272 519.954C147.339 528.002 511.021 544.097 515.615 544.097C521.357 544.097 593.293 43.6472 502.198 229.778C429.106 379.126 384.48 38.9336 304.662 145.277C235.628 237.251 205.319 298.183 134.114 179.193Z" fill="#49A6CC"/>
<path d="M145.501 224.929C74.1541 105.715 -23.5016 434.431 -6.84268 533.823C157.49 541.118 487.197 555.708 491.362 555.708C496.568 555.708 561.783 102.059 479.199 270.784C412.935 406.165 372.478 97.7861 300.116 194.184C237.531 277.557 210.054 332.791 145.501 224.929Z" fill="#56C3F0"/>
<path d="M158.924 292.494C96.2439 187.686 10.4509 476.678 25.0862 564.06C169.457 570.473 459.112 583.3 462.771 583.3C467.345 583.3 524.638 184.473 452.086 332.807C393.871 451.828 358.329 180.716 294.757 265.465C239.775 338.763 215.635 387.322 158.924 292.494Z" fill="#C4EBFB"/>
</g>
<defs>
<filter id="filter0_f_101_171" x="-160.3" y="4.57764e-05" width="832.6" height="707.6" filterUnits="userSpaceOnUse" color-interpolation-filters="sRGB">
<feFlood flood-opacity="0" result="BackgroundImageFix"/>
<feBlend mode="normal" in="SourceGraphic" in2="BackgroundImageFix" result="shape"/>
<feGaussianBlur stdDeviation="45.15" result="effect1_foregroundBlur_101_171"/>
</filter>
</defs>
</svg>
