<svg width="78" height="85" viewBox="0 0 78 85" fill="none" xmlns="http://www.w3.org/2000/svg">
<path d="M8.66667 76.5H69.3333V68H8.66667V76.5ZM22.9667 59.5H55.0333L52.5417 42.5H25.4583L22.9667 59.5ZM0 85V59.5H14.3L16.6833 42.5H4.33333V34H73.6667V42.5H61.3167L63.7 59.5H78V85H0ZM16.3583 34L8.66667 0C11.05 1.77083 13.5056 3.43542 16.0333 4.99375C18.5611 6.55208 21.3417 7.33125 24.375 7.33125C27.2639 7.33125 29.9188 6.6045 32.3397 5.151C34.7606 3.6975 36.9807 1.9805 39 0C41.0222 1.98333 43.2438 3.70175 45.6647 5.15525C48.0856 6.60875 50.739 7.33408 53.625 7.33125C56.6583 7.33125 59.4389 6.55208 61.9667 4.99375C64.4944 3.43542 66.95 1.77083 69.3333 0L61.6417 34H52.7583L56.9833 15.6188L56.173 15.725C55.6299 15.7958 54.7806 15.8312 53.625 15.8312C51.025 15.8312 48.4799 15.4417 45.9897 14.6625C43.4994 13.8833 41.1696 12.7854 39 11.3688C36.9056 12.7854 34.6493 13.8833 32.2313 14.6625C29.8133 15.4417 27.339 15.8312 24.8083 15.8312C23.5083 15.8312 22.5507 15.7958 21.9353 15.725L21.0167 15.6188L25.2417 34H16.3583Z" fill="white"/>
</svg>
