<svg width="96" height="97" viewBox="0 0 96 97" fill="none" xmlns="http://www.w3.org/2000/svg">
<path d="M4.92 92.0287C1.64 88.7146 0 84.7133 0 80.025C0 75.3367 1.64 71.3354 4.92 68.0212C8.2 64.7071 12.16 63.05 16.8 63.05C18.24 63.05 19.64 63.2311 21 63.5932C22.36 63.9553 23.64 64.4613 24.84 65.1113L43.2 46.56V33.2225C39.68 32.1717 36.8 30.1718 34.56 27.223C32.32 24.2743 31.2 20.8582 31.2 16.975C31.2 12.2867 32.84 8.28542 36.12 4.97125C39.4 1.65708 43.36 0 48 0C52.64 0 56.6 1.65708 59.88 4.97125C63.16 8.28542 64.8 12.2867 64.8 16.975C64.8 20.855 63.68 24.271 61.44 27.223C59.2 30.1751 56.32 32.1749 52.8 33.2225V46.56L71.28 65.1113C72.48 64.4646 73.7408 63.9602 75.0624 63.598C76.384 63.2359 77.7632 63.0532 79.2 63.05C83.84 63.05 87.8 64.7071 91.08 68.0212C94.36 71.3354 96 75.3367 96 80.025C96 84.7133 94.36 88.7146 91.08 92.0287C87.8 95.3429 83.84 97 79.2 97C74.56 97 70.6 95.3429 67.32 92.0287C64.04 88.7146 62.4 84.7133 62.4 80.025C62.4 78.57 62.5792 77.1554 62.9376 75.7812C63.296 74.4071 63.7968 73.1138 64.44 71.9013L48 55.29L31.56 71.9013C32.2 73.1138 32.7008 74.4071 33.0624 75.7812C33.424 77.1554 33.6032 78.57 33.6 80.025C33.6 84.7133 31.96 88.7146 28.68 92.0287C25.4 95.3429 21.44 97 16.8 97C12.16 97 8.2 95.3429 4.92 92.0287ZM84.3024 85.1805C85.7008 83.7643 86.4 82.0458 86.4 80.025C86.4 78.0042 85.7008 76.2873 84.3024 74.8743C82.904 73.4613 81.2032 72.7532 79.2 72.75C77.1968 72.7468 75.4976 73.4549 74.1024 74.8743C72.7072 76.2937 72.0064 78.0106 72 80.025C71.9936 82.0394 72.6944 83.7579 74.1024 85.1805C75.5104 86.6032 77.2096 87.3097 79.2 87.3C81.1904 87.2903 82.8912 86.5838 84.3024 85.1805ZM53.1024 22.1306C54.5008 20.7143 55.2 18.9958 55.2 16.975C55.2 14.9542 54.5008 13.2373 53.1024 11.8243C51.704 10.4113 50.0032 9.70323 48 9.7C45.9968 9.69677 44.2976 10.4049 42.9024 11.8243C41.5072 13.2437 40.8064 14.9606 40.8 16.975C40.7936 18.9894 41.4944 20.7079 42.9024 22.1306C44.3104 23.5532 46.0096 24.2597 48 24.25C49.9904 24.2403 51.6912 23.5338 53.1024 22.1306ZM21.9024 85.1805C23.3008 83.7643 24 82.0458 24 80.025C24 78.0042 23.3008 76.2873 21.9024 74.8743C20.504 73.4613 18.8032 72.7532 16.8 72.75C14.7968 72.7468 13.0976 73.4549 11.7024 74.8743C10.3072 76.2937 9.6064 78.0106 9.6 80.025C9.5936 82.0394 10.2944 83.7579 11.7024 85.1805C13.1104 86.6032 14.8096 87.3097 16.8 87.3C18.7904 87.2903 20.4912 86.5838 21.9024 85.1805Z" fill="white"/>
</svg>
